<svg width="800" height="800" viewBox="0 0 32 32" fill="none" xmlns="http://www.w3.org/2000/svg">
  <g clip-path="url(#a)">
    <path d="m18.103 6.949-1.509-4.572L5.44 0 0 6.171l17.006 8.686z" fill="url(#b)"/>
    <path d="m12.8 18.926-.32-9.509L0 6.171l3.063 18.332 9.737-.092z" fill="url(#c)"/>
    <path d="m10.103 18.743.594-7.543 9.051-9.28 8.092 1.463L32 13.76l-4.343 4.297-7.086-1.143-4.389 4.617z" fill="url(#d)"/>
    <path d="M19.749 1.92 6.765 13.44 9.28 28.25 20.069 32l11.93-7.131z" fill="url(#e)"/>
    <path d="M6.126 6.125h19.749v19.75H6.125z" fill="#000"/>
    <path d="M8 22.171h7.406v1.235H8zM7.91 8.686h3.336c1.966 0 3.155 1.142 3.155 2.834v.046c0 1.92-1.463 2.88-3.338 2.88H9.692v2.468H7.909zm3.245 4.114c.914 0 1.417-.549 1.417-1.235v-.045c0-.823-.548-1.234-1.463-1.234H9.738V12.8zm3.702 2.926 1.052-1.28c.731.594 1.508 1.005 2.468 1.005.732 0 1.189-.274 1.189-.777v-.046c0-.457-.274-.685-1.646-1.051-1.645-.412-2.743-.869-2.743-2.514v-.046c0-1.509 1.189-2.469 2.88-2.469 1.189 0 2.24.366 3.063 1.052l-.96 1.371c-.731-.503-1.463-.823-2.148-.823-.686 0-1.052.32-1.052.732v.045c0 .55.366.732 1.783 1.098 1.646.457 2.606 1.051 2.606 2.468v.046c0 1.646-1.234 2.56-3.017 2.56a5.63 5.63 0 0 1-3.475-1.372" fill="#fff"/>
  </g>
  <defs>
    <linearGradient id="b" x1=".255" y1="21.415" x2="13.69" y2="3.669" gradientUnits="userSpaceOnUse">
      <stop offset=".016" stop-color="#765AF8"/>
      <stop offset=".382" stop-color="#B345F1"/>
      <stop offset=".758" stop-color="#FA3293"/>
      <stop offset=".941" stop-color="#FF318C"/>
    </linearGradient>
    <linearGradient id="c" x1="1.248" y1="22.116" x2="14.662" y2="4.398" gradientUnits="userSpaceOnUse">
      <stop offset=".016" stop-color="#765AF8"/>
      <stop offset=".382" stop-color="#B345F1"/>
      <stop offset=".758" stop-color="#FA3293"/>
      <stop offset=".941" stop-color="#FF318C"/>
    </linearGradient>
    <linearGradient id="d" x1="23.249" y1="21.214" x2="15.668" y2="3.222" gradientUnits="userSpaceOnUse">
      <stop offset=".183" stop-color="#765AF8"/>
      <stop offset=".238" stop-color="#8655F6"/>
      <stop offset=".345" stop-color="#9F4CF3"/>
      <stop offset=".443" stop-color="#AE47F2"/>
      <stop offset=".522" stop-color="#B345F1"/>
    </linearGradient>
    <linearGradient id="e" x1="28.922" y1="26.212" x2="11.29" y2="12.579" gradientUnits="userSpaceOnUse">
      <stop offset=".016" stop-color="#765AF8"/>
      <stop offset=".382" stop-color="#B345F1"/>
    </linearGradient>
    <clipPath id="a">
      <path fill="#fff" d="M0 0h32v32H0z"/>
    </clipPath>
  </defs>
</svg>
