<svg xmlns="http://www.w3.org/2000/svg" width="256" height="256" fill="none" viewBox="0 0 256 256">
  <defs>
    <linearGradient id="b" x1="150.391" x2="186.422" y1="121.25" y2="29.535" gradientUnits="userSpaceOnUse">
      <stop offset=".049" stop-color="#219E89"/>
      <stop offset=".279" stop-color="#21BD89"/>
      <stop offset=".753" stop-color="#6EDD88"/>
      <stop offset="1" stop-color="#71DE88"/>
    </linearGradient>
    <linearGradient id="c" x1="180.776" x2="156.681" y1="22.635" y2="141.548" gradientUnits="userSpaceOnUse">
      <stop stop-color="#5EF789"/>
      <stop offset=".163" stop-color="#21D789"/>
      <stop offset=".505" stop-color="#0EA67B"/>
      <stop offset=".982" stop-color="#21D789"/>
    </linearGradient>
    <linearGradient id="d" x1="111.63" x2="192.377" y1="110.031" y2="-.588" gradientUnits="userSpaceOnUse">
      <stop offset=".39" stop-color="#5EF789"/>
      <stop offset=".636" stop-color="#21D789"/>
      <stop offset=".928" stop-color="#0EA67B"/>
    </linearGradient>
    <linearGradient id="e" x1="210.286" x2="89.781" y1="67.593" y2="240.781" gradientUnits="userSpaceOnUse">
      <stop offset=".244" stop-color="#21D789"/>
      <stop offset=".891" stop-color="#FDB60D"/>
    </linearGradient>
    <linearGradient id="f" x1="248.955" x2="121.838" y1="56.092" y2="238.783" gradientUnits="userSpaceOnUse">
      <stop stop-color="#21D789"/>
      <stop offset="1" stop-color="#FDB60D"/>
    </linearGradient>
    <linearGradient id="g" x1="204.242" x2="205.645" y1="168.501" y2="132.475" gradientUnits="userSpaceOnUse">
      <stop offset=".065" stop-color="#037F5C"/>
      <stop offset=".898" stop-color="#038E5C" stop-opacity="0"/>
    </linearGradient>
    <linearGradient id="h" x1="178.995" x2="52.203" y1="134.223" y2="231.951" gradientUnits="userSpaceOnUse">
      <stop stop-color="#21BD89"/>
      <stop offset=".733" stop-color="#FDB60D"/>
    </linearGradient>
    <linearGradient id="i" x1="122.04" x2="63.768" y1="25.807" y2="210.228" gradientUnits="userSpaceOnUse">
      <stop stop-color="#FE2857"/>
      <stop offset="1" stop-color="#FDB60D"/>
    </linearGradient>
    <linearGradient id="j" x1="183.265" x2="72.045" y1="14.918" y2="233.152" gradientUnits="userSpaceOnUse">
      <stop offset=".121" stop-color="#FD7430"/>
      <stop offset=".254" stop-color="#FDB60D"/>
      <stop offset=".535" stop-color="#FE2857"/>
      <stop offset=".914" stop-color="#FDB60D"/>
    </linearGradient>
    <linearGradient id="k" x1="57.492" x2="129.085" y1="53.355" y2="19.883" gradientUnits="userSpaceOnUse">
      <stop offset=".216" stop-color="#BE0059"/>
      <stop offset=".884" stop-color="#FE2857" stop-opacity="0"/>
    </linearGradient>
    <linearGradient id="l" x1="159.24" x2="141.792" y1="75.246" y2="34.438" gradientUnits="userSpaceOnUse">
      <stop offset=".46" stop-color="#FE2857"/>
      <stop offset=".853" stop-color="#FDB60D"/>
      <stop offset="1" stop-color="#FDFFA1"/>
    </linearGradient>
    <linearGradient id="m" x1="163.949" x2="30.306" y1="35.456" y2="211.025" gradientUnits="userSpaceOnUse">
      <stop offset=".272" stop-color="#FE2857"/>
      <stop offset="1" stop-color="#FDB60D"/>
    </linearGradient>
    <linearGradient id="n" x1="151.652" x2="71.009" y1="220.528" y2="130.039" gradientUnits="userSpaceOnUse">
      <stop offset=".39" stop-color="#FDD468"/>
      <stop offset=".975" stop-color="#FDB60D" stop-opacity="0"/>
    </linearGradient>
    <linearGradient id="o" x1="94.849" x2="15.526" y1="154.688" y2="123.588" gradientUnits="userSpaceOnUse">
      <stop offset=".35" stop-color="#FDB60D" stop-opacity="0"/>
      <stop offset=".985" stop-color="#FDFFA1"/>
    </linearGradient>
    <linearGradient id="p" x1="91.099" x2="51.98" y1="23.914" y2="147.717" gradientUnits="userSpaceOnUse">
      <stop offset=".03" stop-color="#FF7F39"/>
      <stop offset=".129" stop-color="#FE2857"/>
      <stop offset="1" stop-color="#FDB60D"/>
    </linearGradient>
    <linearGradient id="q" x1="116.634" x2="171.82" y1="157.558" y2="112.851" gradientUnits="userSpaceOnUse">
      <stop offset=".065" stop-color="#037F5C"/>
      <stop offset=".898" stop-color="#038E5C" stop-opacity="0"/>
    </linearGradient>
    <linearGradient id="r" x1="53.643" x2="189.419" y1="53.643" y2="189.419" gradientUnits="userSpaceOnUse">
      <stop offset=".028" stop-color="#5A1F3A"/>
      <stop offset=".08" stop-color="#4E1B32"/>
      <stop offset=".277" stop-color="#260D18"/>
      <stop offset=".38" stop-color="#16080E"/>
      <stop offset=".391" stop-color="#15080E"/>
      <stop offset=".683" stop-color="#060204"/>
      <stop offset=".914"/>
    </linearGradient>
    <linearGradient id="t" x1="128.37" x2="162.252" y1="144.304" y2="49.59" gradientUnits="userSpaceOnUse">
      <stop offset=".049" stop-color="#219E89" stop-opacity="0"/>
      <stop offset=".822" stop-color="#6EDD88"/>
      <stop offset="1" stop-color="#71DE88"/>
    </linearGradient>
    <linearGradient id="u" x1="153.011" x2="282.762" y1="211.683" y2="44.585" gradientUnits="userSpaceOnUse">
      <stop stop-color="#21D789" stop-opacity="0"/>
      <stop offset="1" stop-color="#FDB60D"/>
    </linearGradient>
    <linearGradient id="v" x1="59.837" x2="127.612" y1="23.408" y2="147.138" gradientUnits="userSpaceOnUse">
      <stop stop-color="#FE2857"/>
      <stop offset="1" stop-color="#FDB60D" stop-opacity="0"/>
    </linearGradient>
    <clipPath id="a">
      <path fill="#fff" d="M12 12h232v232H12z"/>
    </clipPath>
    <clipPath id="s">
      <path fill="#fff" d="M56 56h144v144H56z"/>
    </clipPath>
  </defs>
  <g clip-path="url(#a)">
    <path fill="url(#b)" d="m172.083 12 66.552 47.61-68.364 89.275-65.156-75.365z"/>
    <path fill="url(#c)" d="m172.083 12 66.552 47.61L152.5 99.476 105.115 73.52z"/>
    <path fill="url(#d)" d="M172.083 12 152.5 99.476 105.115 73.52z"/>
    <path fill="url(#e)" d="m244 154.583-91.024-55.787L37.82 180.017l27.216 52.357z"/>
    <path fill="url(#f)" d="m244 154.582-52.884-32.177-63.273 16.378L65.79 244z"/>
    <path fill="url(#g)" d="M190.408 122.589 244 154.582l-78.473 1.048z"/>
    <path fill="url(#h)" d="m139.174 135.348-48.55 96.558 74.904-76.276z"/>
    <path fill="url(#i)" d="M62.123 13.651 184.78 43.982 65.79 244 12 157.327z"/>
    <path fill="url(#j)" d="M184.78 43.982 132.96 78.42 65.733 242.231l2.379-2.134 22.512-8.192z"/>
    <path fill="url(#k)" d="m62.123 13.651 85.213 21.1-31.897 29.051z"/>
    <path fill="url(#l)" d="m184.78 43.982-37.497-9.272.053.04-31.897 29.051 15.66 15.553z"/>
    <path fill="url(#m)" d="M65.734 242.231 12 157.327l103.44-93.525 15.66 15.552z"/>
    <path fill="url(#n)" d="M65.734 242.231 12 157.327l103.44-93.525 15.66 15.552z"/>
    <path fill="url(#o)" d="M65.734 242.231 12 157.327l103.44-93.525 15.66 15.552z"/>
    <path fill="url(#p)" d="M62.123 13.651 12 157.326l103.439-93.525z"/>
    <path fill="url(#q)" d="m139.294 135.191 51.558-13.182-34.44-21.253z"/>
  </g>
  <path fill="url(#r)" d="M200 56H56v144h144z"/>
  <g clip-path="url(#s)" opacity=".3">
    <path fill="url(#t)" d="M200 56h-74.073l-58.358 77.824 102.411 15.995L200 110.615z" opacity=".5"/>
    <path fill="url(#u)" d="M154.465 200 200 177.152v-47.96l-9.32-5.671-62.836 16.266L92.332 200z"/>
    <path fill="url(#v)" d="M178.225 56H56v144h36.56z"/>
  </g>
  <path fill="#fff" d="M127.9 172.9H73.8v9h54.1zM74 73.4h25.44c6.976 0 12.516 2.052 16.209 5.54 3.077 3.077 4.719 7.386 4.719 12.72v.205c0 9.028-4.924 14.567-11.9 17.234L122.009 129h-14.362l-11.9-17.849h-9.642V129H74zm24.62 27.082c5.95 0 9.438-3.077 9.438-7.796v-.205c0-5.335-3.693-8.002-9.643-8.002H86.31v16.003zM130 73.4h25.441c6.975 0 12.515 2.052 16.208 5.54 3.077 3.077 4.719 7.386 4.719 12.72v.205c0 9.028-4.924 14.567-11.9 17.234L178.009 129h-14.362l-11.899-17.849h-9.643V129H130zm24.62 27.082c5.95 0 9.438-3.077 9.438-7.796v-.205c0-5.335-3.693-8.002-9.643-8.002H142.31v16.003z"/>
</svg>
