<svg height="800" aria-hidden="true" viewBox="0 0 400 400" width="800" data-view-component="true" class="octicon octicon-mark-github v-align-middle color-fg-default">
  <path fill="#EFF46A" d="M200 0c110.5 0 200 89.5 200 200a200.25 200.25 0 0 1-136.25 189.75c-10 2-13.75-4.25-13.75-9.5 0-6.75.25-28.25.25-55 0-18.75-6.25-30.75-13.5-37 44.5-5 91.25-22 91.25-98.75 0-22-7.75-39.75-20.5-53.75 2-5 9-25.5-2-53 0 0-16.75-5.5-55 20.5-16-4.5-33-6.75-50-6.75s-34 2.25-50 6.75c-38.25-25.75-55-20.5-55-20.5-11 27.5-4 48-2 53-12.75 14-20.5 32-20.5 53.75 0 76.5 46.5 93.75 91 98.75-5.75 5-11 13.75-12.75 26.75-11.5 5.25-40.25 13.75-58.25-16.5-3.75-6-15-20.75-30.75-20.5-16.75.25-6.75 9.5.25 13.25C71 296 80.75 313.75 83 319.5c4 11.25 17 32.75 67.25 23.5 0 16.75.25 32.5.25 37.25 0 5.25-3.75 11.25-13.75 9.5A199.875 199.875 0 0 1 0 200C0 89.5 89.5 0 200 0"/>
</svg>
