<svg width="800" height="800" viewBox="-10 -10 120 120" fill="none" xmlns="http://www.w3.org/2000/svg"><path fill="#f2f2f2" d="M50-10a60 60 0 0 1 60 60 60 60 0 0 1-60 60 60 60 0 0 1-60-60 60 60 0 0 1 60-60"/><g stroke-linecap="round" stroke-linejoin="round"/><path d="M50.156 26.375C70.744 10.397 60.178 0 60.178 0c1.572 16.522-17.012 20.425-21.994 31.781-3.4 7.747 2.328 14.531 11.966 23.078-.853-1.894-2.169-3.731-3.5-5.594-4.534-6.356-9.262-12.975 3.506-22.887" fill="#E76F00"/><path d="M53.444 58.366s6.194-5 1.287-10.55C38.106 28.972 72.919 20.425 72.919 20.425c-21.256 10.241-18.084 16.316-12.741 23.7 5.719 7.919-6.734 14.241-6.734 14.241" fill="#E76F00"/><path d="M71.678 73.269c19.078-9.75 10.256-19.119 4.1-17.856-1.509.309-2.181.575-2.181.575s.563-.863 1.631-1.238c12.181-4.209 21.547 12.422-3.934 19.009 0 0 .297-.259.384-.491m-39.7-12.341c-11.938-1.569 6.547-5.884 6.547-5.884s-7.178-.475-16.006 3.719c-10.438 4.969 25.819 7.225 44.588 2.372 1.95-1.313 4.647-2.447 4.647-2.447s-7.678 1.347-15.328 1.981c-9.359.772-19.406.922-24.447.259m4.541 9.309c-6.656-.678-2.297-3.85-2.297-3.85-17.225 5.622 9.584 11.997 33.653 5.075-2.559-.887-4.188-2.509-4.188-2.509-11.762 2.228-18.559 2.156-27.169 1.281m2.903 10.078c-6.653-.753-2.769-2.978-2.769-2.978-15.634 4.297 9.512 13.172 29.419 4.781a37.5 37.5 0 0 1-5.594-2.684c-8.881 1.653-13 1.781-21.059.878" fill="#5382A1"/><path d="M81.059 85.434s2.875 2.328-3.169 4.131c-11.491 3.425-47.825 4.456-57.919.137-3.628-1.553 3.175-3.706 5.316-4.156 2.231-.478 3.509-.391 3.509-.391-4.038-2.794-26.084 5.491-11.2 7.862 40.587 6.472 73.991-2.916 63.462-7.584" fill="#5382A1"/><path d="M87.5 90.525c-.666 8.522-28.787 10.313-47.103 9.159-11.947-.75-14.341-2.634-14.375-2.663 11.434 1.853 30.712 2.191 46.344-.7C86.219 93.756 87.5 90.525 87.5 90.525" fill="#5382A1"/></svg>
