<svg xmlns="http://www.w3.org/2000/svg" width="800" height="800" viewBox="0 0 1000 1000" xml:space="preserve"><path style="stroke:none;stroke-width:1;stroke-dasharray:none;stroke-linecap:butt;stroke-dashoffset:0;stroke-linejoin:miter;stroke-miterlimit:4;is-custom-font:none;font-file-url:none;fill:#d37e35;fill-rule:nonzero;opacity:1" vector-effect="non-scaling-stroke" transform="rotate(-81.764 594.512 -20.451)scale(2.2744)" d="M86.1-131c27 32 51.3 55.3 84 91.1 32.8 35.8 74 84.2 65.4 118.2-8.7 33.9-67.1 53.5-114.7 71-47.5 17.6-84.2 33.1-119 30.7-34.9-2.4-68-22.9-79.9-52s-2.6-67-22.8-101.7-70-66.4-76.3-95.3c-6.3-29 30.8-55.2 67.5-84.1 36.8-28.9 73.3-60.4 106.3-55.7s62.6 45.7 89.5 77.8"/><path style="stroke:none;stroke-width:0;stroke-dasharray:none;stroke-linecap:butt;stroke-dashoffset:0;stroke-linejoin:miter;stroke-miterlimit:4;is-custom-font:none;font-file-url:none;fill:#000;fill-rule:evenodd;opacity:1" vector-effect="non-scaling-stroke" transform="translate(25.249 25.249)scale(39.5626)" d="M0 8a4 4 0 0 1 4-4h16a4 4 0 0 1 4 4v8a4 4 0 0 1-4 4H4a4 4 0 0 1-4-4zm4-2a2 2 0 0 0-2 2v8a2 2 0 0 0 2 2h16a2 2 0 0 0 2-2V8a2 2 0 0 0-2-2zm1.684 2.051A1 1 0 0 1 6.8 8.4L9 11.333 11.2 8.4A1 1 0 0 1 13 9v6a1 1 0 1 1-2 0v-3l-1.2 1.6a1 1 0 0 1-1.6 0L7 12v3a1 1 0 1 1-2 0V9a1 1 0 0 1 .684-.949M18 9a1 1 0 1 0-2 0v3.586l-.293-.293a1 1 0 0 0-1.414 1.414l2 2a1 1 0 0 0 1.414 0l2-2a1 1 0 0 0-1.414-1.414l-.293.293z"/></svg>