<svg width="800" height="800" viewBox="-4.8 -4.8 33.6 33.6" fill="none" xmlns="http://www.w3.org/2000/svg" stroke="#000" stroke-width="0">
  <path d="M12 26.62c2.299-.006 3.95-2.176 6.086-3.023 2.429-.962 5.431-.558 7.369-2.31 1.993-1.802 3.08-4.579 3.22-7.262.137-2.64-1.175-5.105-2.453-7.419-1.167-2.113-2.675-4.02-4.64-5.422-1.863-1.328-4.143-1.71-6.325-2.397-2.316-.728-4.57-2.243-6.952-1.78C5.91-2.53 4.35-.31 2.489 1.264.59 2.872-2.113 3.995-2.79 6.39c-.684 2.41 1.205 4.752 1.788 7.189.516 2.155.207 4.56 1.461 6.388 1.256 1.828 3.519 2.552 5.44 3.66C7.89 24.773 9.701 26.624 12 26.618" fill="#D37E35" stroke="none"/>
  <g stroke-linecap="round" stroke-linejoin="round"/>
  <path fill-rule="evenodd" clip-rule="evenodd" d="M0 8a4 4 0 0 1 4-4h16a4 4 0 0 1 4 4v8a4 4 0 0 1-4 4H4a4 4 0 0 1-4-4zm4-2a2 2 0 0 0-2 2v8a2 2 0 0 0 2 2h16a2 2 0 0 0 2-2V8a2 2 0 0 0-2-2zm1.684 2.051A1 1 0 0 1 6.8 8.4L9 11.333 11.2 8.4A1 1 0 0 1 13 9v6a1 1 0 1 1-2 0v-3l-1.2 1.6a1 1 0 0 1-1.6 0L7 12v3a1 1 0 1 1-2 0V9a1 1 0 0 1 .684-.949ZM18 9a1 1 0 1 0-2 0v3.586l-.293-.293a1 1 0 0 0-1.414 1.414l2 2a1 1 0 0 0 1.414 0l2-2a1 1 0 0 0-1.414-1.414l-.293.293z" fill="#000" stroke="none"/>
</svg>
