<svg xmlns="http://www.w3.org/2000/svg" width="1000" height="1000" viewBox="0 0 1000 1000" xml:space="preserve">
  <rect width="100%" height="100%" rx="60" fill="#4e55a5"/>
  <path style="stroke:none;stroke-width:1;stroke-dasharray:none;stroke-linecap:butt;stroke-dashoffset:0;stroke-linejoin:miter;stroke-miterlimit:4;is-custom-font:none;font-file-url:none;fill:#fff;fill-rule:nonzero;opacity:1" vector-effect="non-scaling-stroke" transform="matrix(7.7258 0 0 1.084 .5 116.748)" d="M87 0H0v50h87z"/>
  <path style="stroke:none;stroke-width:1;stroke-dasharray:none;stroke-linecap:butt;stroke-dashoffset:0;stroke-linejoin:miter;stroke-miterlimit:4;is-custom-font:none;font-file-url:none;fill:#fff;fill-rule:nonzero;opacity:1" vector-effect="non-scaling-stroke" transform="matrix(7.7258 0 0 1.084 .5 442.169)" d="M87 0H0v50h87z"/>
  <path style="stroke:none;stroke-width:1;stroke-dasharray:none;stroke-linecap:butt;stroke-dashoffset:0;stroke-linejoin:miter;stroke-miterlimit:4;is-custom-font:none;font-file-url:none;fill:#fff;fill-rule:nonzero;opacity:1" vector-effect="non-scaling-stroke" transform="matrix(3.4814 0 0 1.084 .5 619.413)" d="M87 0H0v50h87z"/>
  <path style="stroke:none;stroke-width:1;stroke-dasharray:none;stroke-linecap:butt;stroke-dashoffset:0;stroke-linejoin:miter;stroke-miterlimit:4;is-custom-font:none;font-file-url:none;fill:#fff;fill-rule:nonzero;opacity:1" vector-effect="non-scaling-stroke" transform="matrix(3.8267 0 0 1.084 .5 795.123)" d="M87 0H0v50h87z"/>
  <path style="stroke:none;stroke-width:1;stroke-dasharray:none;stroke-linecap:butt;stroke-dashoffset:0;stroke-linejoin:miter;stroke-miterlimit:4;is-custom-font:none;font-file-url:none;fill:#fff;fill-rule:nonzero;opacity:1" vector-effect="non-scaling-stroke" transform="matrix(1.787 0 0 1.084 845.034 367.593)" d="M87 0H0v50h87z"/>
  <path style="stroke:none;stroke-width:1;stroke-dasharray:none;stroke-linecap:butt;stroke-dashoffset:0;stroke-linejoin:miter;stroke-miterlimit:4;is-custom-font:none;font-file-url:none;fill:#fff;fill-rule:nonzero;opacity:1" vector-effect="non-scaling-stroke" transform="matrix(2.0104 0 0 1.084 825.598 190.48)" d="M87 0H0v50h87z"/>
  <path style="stroke:none;stroke-width:1;stroke-dasharray:none;stroke-linecap:butt;stroke-dashoffset:0;stroke-linejoin:miter;stroke-miterlimit:4;is-custom-font:none;font-file-url:none;fill:#fff;fill-rule:nonzero;opacity:1" vector-effect="non-scaling-stroke" transform="matrix(.6322 0 0 7.4139 531.964 629.807)" d="M87 0H0v50h87z"/>
  <path style="stroke:none;stroke-width:1;stroke-dasharray:none;stroke-linecap:butt;stroke-dashoffset:0;stroke-linejoin:miter;stroke-miterlimit:4;is-custom-font:none;font-file-url:none;fill:#fff;fill-rule:nonzero;opacity:1" vector-effect="non-scaling-stroke" transform="matrix(.6322 0 0 5.9364 695.845 703.68)" d="M87 0H0v50h87z"/>
  <path style="stroke:none;stroke-width:1;stroke-dasharray:none;stroke-linecap:butt;stroke-dashoffset:0;stroke-linejoin:miter;stroke-miterlimit:4;is-custom-font:none;font-file-url:none;fill:#fff;fill-rule:nonzero;opacity:1" vector-effect="non-scaling-stroke" transform="matrix(.6322 0 0 7.4912 858.493 625.942)" d="M87 0H0v50h87z"/>
  <path style="stroke:none;stroke-width:1;stroke-dasharray:none;stroke-linecap:butt;stroke-dashoffset:0;stroke-linejoin:miter;stroke-miterlimit:4;is-custom-font:none;font-file-url:none;fill:#fff;fill-rule:nonzero;opacity:1" vector-effect="non-scaling-stroke" transform="matrix(.6322 0 0 4.1141 90.81 265.75)" d="M87 0H0v50h87z"/>
  <path style="stroke:none;stroke-width:1;stroke-dasharray:none;stroke-linecap:butt;stroke-dashoffset:0;stroke-linejoin:miter;stroke-miterlimit:4;is-custom-font:none;font-file-url:none;fill:#fff;fill-rule:nonzero;opacity:1" vector-effect="non-scaling-stroke" transform="matrix(5.6605 0 0 1.084 91.346 265.755)" d="M87 0H0v50h87z"/>
  <path style="stroke:none;stroke-width:1;stroke-dasharray:none;stroke-linecap:butt;stroke-dashoffset:0;stroke-linejoin:miter;stroke-miterlimit:4;is-custom-font:none;font-file-url:none;fill:#fff;fill-rule:nonzero;opacity:1" vector-effect="non-scaling-stroke" transform="matrix(.7481 0 0 .7377 531.964 243.181)" d="M67.5 135c37.279 0 67.5-30.221 67.5-67.5C135 30.22 104.779 0 67.5 0 30.22 0 0 30.22 0 67.5S30.22 135 67.5 135"/>
  <path style="stroke:none;stroke-width:1;stroke-dasharray:none;stroke-linecap:butt;stroke-dashoffset:0;stroke-linejoin:miter;stroke-miterlimit:4;is-custom-font:none;font-file-url:none;fill:#fff;fill-rule:nonzero;opacity:1" vector-effect="non-scaling-stroke" transform="matrix(.7481 0 0 .7377 628.272 94.054)" d="M67.5 135c37.279 0 67.5-30.221 67.5-67.5C135 30.22 104.779 0 67.5 0 30.22 0 0 30.22 0 67.5S30.22 135 67.5 135"/>
  <path style="stroke:none;stroke-width:1;stroke-dasharray:none;stroke-linecap:butt;stroke-dashoffset:0;stroke-linejoin:miter;stroke-miterlimit:4;is-custom-font:none;font-file-url:none;fill:#fff;fill-rule:nonzero;opacity:1" vector-effect="non-scaling-stroke" transform="matrix(.7481 0 0 .7377 768.015 166.785)" d="M67.5 135c37.279 0 67.5-30.221 67.5-67.5C135 30.22 104.779 0 67.5 0 30.22 0 0 30.22 0 67.5S30.22 135 67.5 135"/>
  <path style="stroke:none;stroke-width:1;stroke-dasharray:none;stroke-linecap:butt;stroke-dashoffset:0;stroke-linejoin:miter;stroke-miterlimit:4;is-custom-font:none;font-file-url:none;fill:#fff;fill-rule:nonzero;opacity:1" vector-effect="non-scaling-stroke" transform="matrix(.7481 0 0 .7377 793.605 343.898)" d="M67.5 135c37.279 0 67.5-30.221 67.5-67.5C135 30.22 104.779 0 67.5 0 30.22 0 0 30.22 0 67.5S30.22 135 67.5 135"/>
  <path style="stroke:none;stroke-width:1;stroke-dasharray:none;stroke-linecap:butt;stroke-dashoffset:0;stroke-linejoin:miter;stroke-miterlimit:4;is-custom-font:none;font-file-url:none;fill:#fff;fill-rule:nonzero;opacity:1" vector-effect="non-scaling-stroke" transform="matrix(.7481 0 0 .7377 627.76 419.474)" d="M67.5 135c37.279 0 67.5-30.221 67.5-67.5C135 30.22 104.779 0 67.5 0 30.22 0 0 30.22 0 67.5S30.22 135 67.5 135"/>
  <path style="stroke:none;stroke-width:1;stroke-dasharray:none;stroke-linecap:butt;stroke-dashoffset:0;stroke-linejoin:miter;stroke-miterlimit:4;is-custom-font:none;font-file-url:none;fill:#fff;fill-rule:nonzero;opacity:1" vector-effect="non-scaling-stroke" transform="matrix(.7481 0 0 .7377 508.737 562.41)" d="M67.5 135c37.279 0 67.5-30.221 67.5-67.5C135 30.22 104.779 0 67.5 0 30.22 0 0 30.22 0 67.5S30.22 135 67.5 135"/>
  <path style="stroke:none;stroke-width:1;stroke-dasharray:none;stroke-linecap:butt;stroke-dashoffset:0;stroke-linejoin:miter;stroke-miterlimit:4;is-custom-font:none;font-file-url:none;fill:#fff;fill-rule:nonzero;opacity:1" vector-effect="non-scaling-stroke" transform="matrix(.7481 0 0 .7377 672.557 669.692)" d="M67.5 135c37.279 0 67.5-30.221 67.5-67.5C135 30.22 104.779 0 67.5 0 30.22 0 0 30.22 0 67.5S30.22 135 67.5 135"/>
  <path style="stroke:none;stroke-width:1;stroke-dasharray:none;stroke-linecap:butt;stroke-dashoffset:0;stroke-linejoin:miter;stroke-miterlimit:4;is-custom-font:none;font-file-url:none;fill:#fff;fill-rule:nonzero;opacity:1" vector-effect="non-scaling-stroke" transform="matrix(.7481 0 0 .7377 835.267 558.41)" d="M67.5 135c37.279 0 67.5-30.221 67.5-67.5C135 30.22 104.779 0 67.5 0 30.22 0 0 30.22 0 67.5S30.22 135 67.5 135"/>
  <path style="stroke:none;stroke-width:1;stroke-dasharray:none;stroke-linecap:butt;stroke-dashoffset:0;stroke-linejoin:miter;stroke-miterlimit:4;is-custom-font:none;font-file-url:none;fill:#fff;fill-rule:nonzero;opacity:1" vector-effect="non-scaling-stroke" transform="matrix(.7481 0 0 .7377 271.69 596.718)" d="M67.5 135c37.279 0 67.5-30.221 67.5-67.5C135 30.22 104.779 0 67.5 0 30.22 0 0 30.22 0 67.5S30.22 135 67.5 135"/>
  <path style="stroke:none;stroke-width:1;stroke-dasharray:none;stroke-linecap:butt;stroke-dashoffset:0;stroke-linejoin:miter;stroke-miterlimit:4;is-custom-font:none;font-file-url:none;fill:#fff;fill-rule:nonzero;opacity:1" vector-effect="non-scaling-stroke" transform="matrix(.7481 0 0 .7377 321.46 772.428)" d="M67.5 135c37.279 0 67.5-30.221 67.5-67.5C135 30.22 104.779 0 67.5 0 30.22 0 0 30.22 0 67.5S30.22 135 67.5 135"/>
</svg>
