<svg width="800" height="800" viewBox="0 0 100 100" fill="none" xmlns="http://www.w3.org/2000/svg"><g stroke-width="0"/><g stroke-linecap="round" stroke-linejoin="round"/><path fill-rule="evenodd" clip-rule="evenodd" d="M17.863 91.306 7.113 77.915a17.97 17.97 0 0 1-3.988-11.259V18.172c0-6.106 4.888-11.175 11.188-11.606l49.85-3.403A16.25 16.25 0 0 1 74.36 5.891l17.512 11.841a11.22 11.22 0 0 1 5.003 9.28v55.125c0 5.975-4.803 10.922-10.975 11.303l-55.328 3.404c-4.925.303-9.684-1.772-12.709-5.541" fill="#fff"/><path d="M35.15 42.434V41.8c0-1.609 1.291-2.944 2.95-3.056l12.097-.806 16.731 24.634V40.95l-4.306-.575v-.3c0-1.628 1.319-2.969 3-3.056l11.009-.563v1.581a1.55 1.55 0 0 1-1.313 1.509l-2.65.447v35.019l-3.322 1.141c-2.781.956-5.872-.066-7.459-2.466L45.643 49.178v23.394l5 .956-.069.462c-.219 1.453-1.475 2.553-2.991 2.619l-12.434.556c-.166-1.563 1.006-2.959 2.622-3.131l1.634-.172V42.674z" fill="#000"/><path fill-rule="evenodd" clip-rule="evenodd" d="m64.609 9.272-49.85 3.403c-2.984.203-5.3 2.603-5.3 5.497v48.484c0 2.719.938 5.359 2.659 7.506l10.75 13.391a8.69 8.69 0 0 0 7.3 3.181l55.328-3.406c2.834-.172 5.041-2.447 5.041-5.194V27.012a5.16 5.16 0 0 0-2.297-4.263L70.728 10.905a9.75 9.75 0 0 0-6.119-1.634m-47.375 9.656c-.694-.513-.366-1.581.506-1.644l47.203-3.388a6.5 6.5 0 0 1 4.216 1.169l9.469 6.709a.453.453 0 0 1-.25.828L28.387 25.32a6.5 6.5 0 0 1-4.209-1.25zm8.809 14.919c0-1.625 1.313-2.969 2.987-3.056l52.853-2.881c1.634-.088 3.012 1.169 3.012 2.75V78.39c0 1.622-1.309 2.962-2.981 3.056l-52.519 2.991c-1.819.103-3.353-1.297-3.353-3.059z" fill="#000"/></svg>