<svg xmlns="http://www.w3.org/2000/svg" width="800" height="800" viewBox="0 0 800 800"><g fill="none"><path fill="#2081e2" d="M799.989 399.994c0 220.9-179.094 399.995-399.995 399.995S0 620.896 0 399.994 179.094 0 399.994 0C620.943 0 799.99 179.094 799.99 399.994"/><path fill="#fff" d="m197.341 413.434 1.728-2.712 104.047-162.781a3.56 3.56 0 0 1 6.24.456c17.383 38.96 32.382 87.407 25.359 117.574-3 12.408-11.217 29.216-20.464 44.751q-1.808 3.4-3.904 6.616a3.52 3.52 0 0 1-2.96 1.56H200.38c-2.88 0-4.56-3.12-3.04-5.464"/><path fill="#fff" d="M661.143 443.682v25.76a3.7 3.7 0 0 1-2.217 3.375c-8.056 3.456-35.63 16.112-47.095 32.056-29.264 40.72-51.615 98.958-101.59 98.958H301.762c-73.886 0-133.765-60.078-133.765-134.222v-2.384c0-1.967 1.6-3.568 3.576-3.568h116.222c2.296 0 3.984 2.136 3.776 4.4a39.7 39.7 0 0 0 4.152 22.311 40.88 40.88 0 0 0 36.655 22.768h57.536v-44.92h-56.88a3.664 3.664 0 0 1-2.96-5.76c.624-.944 1.32-1.92 2.056-3.04a416 416 0 0 0 20.72-33.039c5.216-9.12 10.272-18.864 14.335-28.64.825-1.767 1.48-3.576 2.136-5.343 1.112-3.12 2.264-6.04 3.088-8.96.816-2.465 1.48-5.057 2.136-7.48 1.928-8.305 2.752-17.096 2.752-26.216 0-3.576-.16-7.32-.496-10.896-.16-3.904-.656-7.808-1.151-11.712a120 120 0 0 0-1.6-10.44 176 176 0 0 0-3.28-15.616l-.457-1.968c-.992-3.576-1.807-6.984-2.96-10.56a400 400 0 0 0-10.936-32.383c-1.44-4.072-3.08-7.976-4.72-11.88-2.423-5.88-4.896-11.216-7.151-16.271a222 222 0 0 1-3.12-6.536 232 232 0 0 0-3.416-7.151c-.825-1.76-1.768-3.408-2.424-5.057l-7.032-12.984a2.288 2.288 0 0 1 2.592-3.328l43.975 11.92h.12c.08 0 .128.04.16.04l5.8 1.6 6.368 1.808 2.344.656v-26.136c0-12.615 10.112-22.847 22.6-22.847a22.36 22.36 0 0 1 15.991 6.695c4.064 4.16 6.616 9.824 6.616 16.16v38.791l4.68 1.312a4 4 0 0 1 1.072.536c1.152.864 2.8 2.136 4.888 3.695 1.648 1.312 3.416 2.92 5.552 4.56 4.232 3.416 9.28 7.808 14.832 12.864a84 84 0 0 1 4.24 3.904 336 336 0 0 1 22.8 23.095 295 295 0 0 1 6.375 7.48c2.136 2.632 4.4 5.217 6.368 7.808 2.592 3.456 5.384 7.032 7.807 10.768 1.152 1.767 2.465 3.576 3.577 5.344 3.12 4.72 5.872 9.616 8.504 14.503 1.112 2.264 2.263 4.728 3.247 7.152 2.92 6.536 5.217 13.2 6.696 19.848a24 24 0 0 1 .944 4.4v.328c.496 1.976.664 4.072.824 6.208a66.4 66.4 0 0 1-1.152 20.504 72 72 0 0 1-2.424 8.592c-.984 2.8-1.967 5.712-3.247 8.464a115 115 0 0 1-8.832 16.767c-1.112 1.976-2.424 4.072-3.736 6.04-1.44 2.096-2.92 4.072-4.24 6-1.808 2.464-3.736 5.056-5.712 7.36-1.76 2.423-3.576 4.848-5.544 6.984a272 272 0 0 1-8.136 9.28c-1.647 1.936-3.416 3.912-5.224 5.68-1.76 1.967-3.576 3.736-5.216 5.383a214 214 0 0 1-6.984 6.656l-4.52 4.152a3.68 3.68 0 0 1-2.423.904h-35.023v44.92h44.055a41.2 41.2 0 0 0 26.792-9.904c2.592-2.264 13.888-12.048 27.247-26.8a3.44 3.44 0 0 1 1.68-1.024l121.686-35.175a3.6 3.6 0 0 1 4.56 3.448"/></g></svg>