<svg width="800" height="800" xmlns="http://www.w3.org/2000/svg" xml:space="preserve" viewBox="0 0 800 800">
  <path fill="#FAFAFA" d="M.004 399.997c0-111.223 46.687-211.483 120.866-283.496C195.339 44.178 294.866 2.51 399.999 2.51S604.65 44.178 679.138 116.5c74.16 72.014 120.866 172.279 120.866 283.497S753.308 611.48 679.138 683.493c-74.488 72.322-174.006 113.99-279.139 113.99s-204.651-41.668-279.139-113.99C46.7 611.48-.006 511.214-.006 399.997z" vector-effect="non-scaling-stroke"/>
  <path d="m355.192 376.244.435 150.94 34.609.437 34.464.29v-47.259c0-26.03.436-47.26 1.162-47.114.582 0 16.286 21.23 35.045 47.259l34.027 47.114h42.752c23.411 0 42.606-.436 42.606-.872s-20.504-25.157-45.37-54.822c-25.011-29.81-46.242-55.112-47.259-56.275-1.454-1.89 5.962-11.634 45.224-58.893l46.968-56.712-43.042-.436c-33.445-.29-43.188.146-43.915 1.454-.582 1.018-15.995 21.812-34.318 46.242l-33.154 44.352-.436-83.323-.291-83.177h-69.798zm-167.577-77.342c-29.52 6.69-48.714 20.067-58.312 40.716-5.816 12.36-7.706 24.72-5.67 37.662 1.89 12.36 5.234 20.067 12.214 27.92 11.488 13.378 25.157 19.63 66.89 30.536 28.647 7.562 39.262 12.07 42.316 18.032 2.763 5.38 2.763 7.853-.146 13.96-3.635 7.562-11.778 11.197-25.302 11.197-9.016 0-12.36-.727-18.468-3.926-8.434-4.217-14.542-11.197-15.85-18.031l-.872-4.654h-34.027c-18.613 0-34.172.437-34.463 1.018-1.309 2.472 3.344 19.34 7.707 28.21 6.98 13.814 22.539 28.646 38.098 36.062 20.213 9.743 31.7 12.215 57.875 12.215 25.156 0 36.935-2.182 54.53-10.616 39.116-18.758 50.749-68.054 23.266-98.59-11.778-12.942-27.192-19.776-69.072-30.828-12.069-3.199-24.866-7.125-28.501-8.579-7.998-3.635-12.651-10.47-11.633-17.45 1.454-9.888 10.034-15.123 24.866-15.123 16.578 0 27.774 6.544 31.991 18.904l1.89 5.526 32.136.436c25.157.291 32.137 0 32.137-1.454 0-1.018-1.018-5.962-2.181-10.906-6.834-28.938-26.756-49.877-56.712-59.62-9.888-3.199-14.832-3.781-33.445-4.217-15.56-.436-24.576 0-31.264 1.6"/>
  <path d="M619.79 528c-23.262 0-42.106-16.77-42.106-37.474s18.843-37.474 42.106-37.474 42.105 16.77 42.105 37.474S643.052 528 619.79 528" opacity="undefined" fill="#ff9800"/>
</svg>
