<svg xmlns="http://www.w3.org/2000/svg" viewBox="0 0 800 800" xml:space="preserve" width="800" height="800">
  <path d="M0 0h241.923v242.082H0z" style="fill:#fb4725"/>
  <path d="M273.237 0h250.03v242.082H273.237z" style="fill:#ff7b39"/>
  <path d="M554.421 0h242.082v242.082H554.421z" style="fill:#fc9b3a"/>
  <path d="M0 275.78h241.923v250.03H0z" style="fill:#22b45c"/>
  <path d="M273.237 275.78h250.03v250.03H273.237z" style="fill:#91ca06"/>
  <path d="M554.421 275.78h242.082v250.03H554.421z" style="fill:#d6d230"/>
  <path d="M0 557.918h241.923v242.082H0z" style="fill:#0066b6"/>
  <path style="fill:#429acc" d="M273.237 557.918h250.03v242.082H273.237z"/>
  <path style="fill:#6cbadd" d="M554.421 557.918h242.082v242.082H554.421z"/>
  <path d="M103.318 199.801h41.327v-122.392h46.096v-34.969H55.633v34.969h47.685zm274.985 -157.361h41.327v157.361h-41.327zm263.859 50.228 48.321 107.133H745.48v-157.361h-38.148v108.246l-47.685 -108.246h-55.633v157.361h38.148zM192.966 320.604H142.897L95.371 378.462v-57.858H54.043v157.361h41.327v-63.739l50.705 63.739h51.977l-71.687 -83.29zm255.275 127.161h-66.759v-34.969h61.991v-30.201h-61.991v-30.201h63.58v-31.79h-104.908v157.361h108.087zM729.585 363.998c0 -27.022 -21.14 -43.394 -56.587 -43.394H610.372v157.361h39.738v-61.991h8.265c13.67 0 16.531 4.292 23.048 21.776l14.306 40.215h44.506L719.094 424.399c-4.451 -10.968 -8.742 -18.438 -15.895 -23.207 17.008 -6.358 26.386 -19.551 26.386 -37.195m-41.327 3.179c0 15.577 -14.782 18.756 -27.181 18.756H650.109v-34.969h11.921c18.915 -0.159 26.227 4.451 26.227 16.213M168.17 720.525c-8.742 3.974 -18.915 5.881 -30.36 5.881 -29.724 0 -47.526 -18.279 -47.526 -48.798 0 -29.247 19.392 -48.798 48.162 -48.798 9.696 0 20.664 2.066 29.247 5.722l5.245 2.225 1.748 -33.539 -3.02 -0.954c-11.762 -3.497 -26.068 -5.563 -38.466 -5.563 -49.593 0 -85.675 34.015 -85.675 80.906C47.685 702.563 55.951 723.227 71.846 737.532c15.1 13.67 36.4 20.982 61.514 20.982 14.465 0 28.452 -2.384 39.261 -6.517l2.702 -1.113 -1.907 -32.744zm206.795 -121.756 -59.924 157.361h41.168l13.511 -38.148H427.578l13.193 38.148h43.076l-60.083 -157.361zm42.917 89.013h-38.466l19.551 -52.613zm244.308 -89.013H605.603v157.361h52.454c54.361 0 86.946 -30.201 86.946 -80.747 0 -49.275 -29.406 -76.614 -82.813 -76.614m40.215 76.614c0 32.585 -17.008 50.546 -49.116 50.546h-6.358v-96.96h10.173c29.247 0 45.301 17.008 45.301 46.414" style="fill:#fff"/>
</svg>
