<svg xmlns="http://www.w3.org/2000/svg" width="600" height="200" viewBox="0 0 600 200" xml:space="preserve">
  <rect rx="30" width="100%" height="100%" fill="rgba(0,0,0,0.25)"/>
  <path style="stroke:#fff;stroke-width:3.0665;stroke-dasharray:none;stroke-linecap:round;stroke-dashoffset:0;stroke-linejoin:round;stroke-miterlimit:10;is-custom-font:none;font-file-url:none;fill:none;fill-rule:nonzero;opacity:1" transform="rotate(18.95 151.641 970.603)" d="M60.814 2 43.186 19.789m17.788 0L43.186 2.16" stroke-linecap="round"/>
  <path style="stroke:#eff46a;stroke-width:3.0665;stroke-dasharray:none;stroke-linecap:round;stroke-dashoffset:0;stroke-linejoin:round;stroke-miterlimit:10;is-custom-font:none;font-file-url:none;fill:none;fill-rule:nonzero;opacity:1" transform="rotate(18.95 153.729 970.973)" d="M19.788 2.16 2 19.95" stroke-linecap="round"/>
  <path style="stroke:#eff46a;stroke-width:3.0665;stroke-dasharray:none;stroke-linecap:round;stroke-dashoffset:0;stroke-linejoin:round;stroke-miterlimit:10;is-custom-font:none;font-file-url:none;fill:none;fill-rule:nonzero;opacity:1" transform="rotate(18.95 153.246 970.893)" d="M19.788 19.789 2 2.16" stroke-linecap="round"/>
  <path style="stroke:#eff46a;stroke-width:3.0665;stroke-dasharray:none;stroke-linecap:round;stroke-dashoffset:0;stroke-linejoin:round;stroke-miterlimit:10;is-custom-font:none;font-file-url:none;fill:none;fill-rule:nonzero;opacity:1" transform="rotate(18.95 110.553 1218.36)" d="M19.788 19.789 2 2.16" stroke-linecap="round"/>
  <path style="stroke:#eff46a;stroke-width:3.0665;stroke-dasharray:none;stroke-linecap:round;stroke-dashoffset:0;stroke-linejoin:round;stroke-miterlimit:10;is-custom-font:none;font-file-url:none;fill:none;fill-rule:nonzero;opacity:1" transform="rotate(18.95 111.036 1218.44)" d="M19.788 2.16 2 19.95" stroke-linecap="round"/>
  <path style="stroke:#fff;stroke-width:3.0665;stroke-dasharray:none;stroke-linecap:round;stroke-dashoffset:0;stroke-linejoin:round;stroke-miterlimit:10;is-custom-font:none;font-file-url:none;fill:none;fill-rule:nonzero;opacity:1" transform="rotate(18.95 -343.736 545.463)" d="M60.814 2 43.186 19.789" stroke-linecap="round"/>
  <path style="stroke:#fff;stroke-width:3.0665;stroke-dasharray:none;stroke-linecap:round;stroke-dashoffset:0;stroke-linejoin:round;stroke-miterlimit:10;is-custom-font:none;font-file-url:none;fill:none;fill-rule:nonzero;opacity:1" transform="rotate(18.95 -343.736 545.464)" d="M60.974 19.789 43.186 2.16" stroke-linecap="round"/>
  <path style="stroke:#eff46a;stroke-width:3.0665;stroke-dasharray:none;stroke-linecap:round;stroke-dashoffset:0;stroke-linejoin:round;stroke-miterlimit:10;is-custom-font:none;font-file-url:none;fill:none;fill-rule:nonzero;opacity:1" transform="rotate(18.95 -341.648 545.834)" d="M19.788 2.16 2 19.95" stroke-linecap="round"/>
  <path style="stroke:#eff46a;stroke-width:3.0665;stroke-dasharray:none;stroke-linecap:round;stroke-dashoffset:0;stroke-linejoin:round;stroke-miterlimit:10;is-custom-font:none;font-file-url:none;fill:none;fill-rule:nonzero;opacity:1" transform="rotate(18.95 -342.13 545.754)" d="M19.788 19.789 2 2.16" stroke-linecap="round"/>
  <path style="stroke:#eff46a;stroke-width:3.0665;stroke-dasharray:none;stroke-linecap:round;stroke-dashoffset:0;stroke-linejoin:round;stroke-miterlimit:10;is-custom-font:none;font-file-url:none;fill:none;fill-rule:nonzero;opacity:1" transform="rotate(18.95 -384.823 793.22)" d="M19.788 19.789 2 2.16" stroke-linecap="round"/>
  <path style="stroke:#eff46a;stroke-width:3.0665;stroke-dasharray:none;stroke-linecap:round;stroke-dashoffset:0;stroke-linejoin:round;stroke-miterlimit:10;is-custom-font:none;font-file-url:none;fill:none;fill-rule:nonzero;opacity:1" transform="rotate(18.95 -384.34 793.301)" d="M19.788 2.16 2 19.95" stroke-linecap="round"/>
  <path style="stroke:none;stroke-width:0;stroke-dasharray:none;stroke-linecap:butt;stroke-dashoffset:0;stroke-linejoin:miter;stroke-miterlimit:4;is-custom-font:none;font-file-url:none;fill:#eff46a;fill-rule:nonzero;opacity:1" transform="translate(10 78.029)scale(1.6767)" d="m0 1 20.094 11.682L0 24.21z"/>
  <path style="stroke:#fff;stroke-width:1.0267;stroke-dasharray:none;stroke-linecap:round;stroke-dashoffset:0;stroke-linejoin:round;stroke-miterlimit:10;is-custom-font:none;font-file-url:none;fill:none;fill-rule:nonzero;opacity:1" transform="translate(10.839 78.867)scale(1.6767)" d="m20.093 1 19.938 11.682L20.093 24.21z" stroke-linecap="round"/>
  <path style="stroke:none;stroke-width:0;stroke-dasharray:none;stroke-linecap:butt;stroke-dashoffset:0;stroke-linejoin:miter;stroke-miterlimit:4;is-custom-font:none;font-file-url:none;fill:#eff46a;fill-rule:nonzero;opacity:1" transform="translate(10 78.029)scale(1.6767)" d="M40.031 1 59.97 12.682 40.03 24.21z"/>
  <path style="stroke:#fff;stroke-width:1.0267;stroke-dasharray:none;stroke-linecap:round;stroke-dashoffset:0;stroke-linejoin:round;stroke-miterlimit:10;is-custom-font:none;font-file-url:none;fill:none;fill-rule:nonzero;opacity:1" transform="translate(10.838 78.867)scale(1.6767)" d="m59.969 1 20.093 11.682L59.97 24.21z" stroke-linecap="round"/>
  <path style="stroke:none;stroke-width:0;stroke-dasharray:none;stroke-linecap:butt;stroke-dashoffset:0;stroke-linejoin:miter;stroke-miterlimit:4;is-custom-font:none;font-file-url:none;fill:#eff46a;fill-rule:nonzero;opacity:1" transform="translate(10 78.029)scale(1.6767)" d="M80.062 1 100 12.682 80.062 24.21z"/>
  <path style="stroke:none;stroke-width:0;stroke-dasharray:none;stroke-linecap:butt;stroke-dashoffset:0;stroke-linejoin:miter;stroke-miterlimit:4;is-custom-font:none;font-file-url:none;fill:#eff46a;fill-rule:nonzero;opacity:1" transform="matrix(-1.6767 0 0 1.6767 589.907 79.706)" d="m0 1 20.094 11.682L0 24.21z"/>
  <path style="stroke:#fff;stroke-width:1.0267;stroke-dasharray:none;stroke-linecap:round;stroke-dashoffset:0;stroke-linejoin:round;stroke-miterlimit:10;is-custom-font:none;font-file-url:none;fill:none;fill-rule:nonzero;opacity:1" transform="matrix(-1.6767 0 0 1.6767 589.068 78.867)" d="m20.093 1 19.938 11.682L20.093 24.21z" stroke-linecap="round"/>
  <path style="stroke:none;stroke-width:0;stroke-dasharray:none;stroke-linecap:butt;stroke-dashoffset:0;stroke-linejoin:miter;stroke-miterlimit:4;is-custom-font:none;font-file-url:none;fill:#eff46a;fill-rule:nonzero;opacity:1" transform="matrix(-1.6767 0 0 1.6767 589.907 79.706)" d="M40.031 1 59.97 12.682 40.03 24.21z"/>
  <path style="stroke:#fff;stroke-width:1.0267;stroke-dasharray:none;stroke-linecap:round;stroke-dashoffset:0;stroke-linejoin:round;stroke-miterlimit:10;is-custom-font:none;font-file-url:none;fill:none;fill-rule:nonzero;opacity:1" transform="matrix(-1.6767 0 0 1.6767 589.069 78.867)" d="m59.969 1 20.093 11.682L59.97 24.21z" stroke-linecap="round"/>
  <path style="stroke:none;stroke-width:0;stroke-dasharray:none;stroke-linecap:butt;stroke-dashoffset:0;stroke-linejoin:miter;stroke-miterlimit:4;is-custom-font:none;font-file-url:none;fill:#eff46a;fill-rule:nonzero;opacity:1" transform="matrix(-1.6767 0 0 1.6767 589.906 79.706)" d="M80.062 1 100 12.682 80.062 24.21z"/>
  <path xml:space="preserve" style="stroke:none;stroke-width:0;stroke-dasharray:none;stroke-linecap:butt;stroke-dashoffset:0;stroke-linejoin:miter;stroke-miterlimit:4;is-custom-font:none;font-file-url:none;fill:#fff;fill-rule:nonzero;opacity:1;white-space:pre" d="M-125.86-7h-3.95l-7.21-25.2h3.6l5.59 20.05 5.57-20.05h3.61l5.57 20.05 5.59-20.05h3.6l-7.2 25.2h-3.96l-5.4-18.89zm40.69-15.25v7.66h-12.39v4.13h12.39V-7h-12.39q-.7 0-1.33-.27-.64-.27-1.1-.74-.47-.46-.74-1.1-.27-.63-.27-1.35v-11.79q0-.73.27-1.36t.74-1.1q.46-.46 1.1-.74.63-.27 1.33-.27h8.93q.72 0 1.35.27.64.28 1.1.74.47.47.74 1.1t.27 1.36m-3.46 0h-8.93v4.2h8.93zm9.23-10.67h3.44V-7h-3.44zm21.59 10.67h-8.93v11.79h8.93v-3.16h3.46v3.16q0 .72-.27 1.35-.28.64-.74 1.1-.47.47-1.1.74t-1.35.27h-8.93q-.71 0-1.34-.27t-1.1-.74q-.46-.46-.74-1.1-.27-.63-.27-1.35v-11.79q0-.73.27-1.36.28-.63.74-1.1.47-.46 1.1-.74.63-.27 1.34-.27h8.93q.72 0 1.35.27.63.28 1.1.74.46.47.74 1.1.27.63.27 1.36v3.16h-3.46zm25.41 0v11.79q0 .72-.27 1.35-.27.64-.74 1.1-.46.47-1.09.74-.62.27-1.34.27h-9.3q-.7 0-1.34-.27-.63-.27-1.1-.74-.46-.46-.73-1.1-.28-.63-.28-1.35v-11.79q0-.73.28-1.36.27-.63.73-1.1.47-.46 1.1-.74.64-.27 1.34-.27h9.3q.72 0 1.34.27.63.28 1.09.74.47.47.74 1.1t.27 1.36m-3.44 0h-9.3v11.79h9.3zm31.96 0h-7.91V-7h-3.47v-15.25h-7.93V-7h-3.44v-18.72h3.44v3.31q.04-.69.32-1.3.28-.6.75-1.05.46-.45 1.08-.7.61-.26 1.32-.26h4.46q.69 0 1.3.26.62.25 1.09.7.48.45.77 1.05.29.61.31 1.3.03-.69.3-1.3.28-.6.74-1.05.47-.45 1.08-.7.62-.26 1.32-.26h4.47q.72 0 1.35.27.63.28 1.1.74.46.47.74 1.1.27.63.27 1.36V-7h-3.46zm25.06 0v7.66H8.79v4.13h12.39V-7H8.79q-.7 0-1.34-.27-.63-.27-1.1-.74-.46-.46-.73-1.1-.28-.63-.28-1.35v-11.79q0-.73.28-1.36.27-.63.73-1.1.47-.46 1.1-.74.64-.27 1.34-.27h8.93q.72 0 1.35.27.64.28 1.1.74.47.47.74 1.1t.27 1.36m-3.46 0H8.79v4.2h8.93zm18.93 0v-3.47h4.57v-5.76h3.46v5.76h6.16v3.47h-6.16v11.79h6.16V-7h-6.16q-.7 0-1.33-.27-.64-.27-1.11-.74-.47-.46-.75-1.1-.27-.63-.27-1.35v-11.79zm36.14 0v11.79q0 .72-.27 1.35-.27.64-.74 1.1-.47.47-1.09.74T69.35-7h-9.3q-.71 0-1.34-.27t-1.1-.74q-.46-.46-.74-1.1-.27-.63-.27-1.35v-11.79q0-.73.27-1.36.28-.63.74-1.1.47-.46 1.1-.74.63-.27 1.34-.27h9.3q.72 0 1.34.27.62.28 1.09.74.47.47.74 1.1t.27 1.36m-3.44 0h-9.3v11.79h9.3zm42.75 0h-7.91V-7h-3.47v-15.25h-7.93V-7h-3.44v-18.72h3.44v3.31q.04-.69.32-1.3.28-.6.75-1.05.46-.45 1.08-.7.61-.26 1.32-.26h4.46q.69 0 1.3.26.62.25 1.09.7.48.45.77 1.05.29.61.31 1.3.03-.69.3-1.3.28-.6.74-1.05.47-.45 1.08-.7.62-.26 1.32-.26h4.47q.72 0 1.35.27.63.28 1.1.74.46.47.74 1.1.27.63.27 1.36V-7h-3.46zM126.04.56h-3.45l3.92-9.24-7.35-17.04h3.64l5.47 12.89 5.46-12.89h3.64zm-167.01 13.8v11.79q0 .72-.27 1.36-.27.63-.74 1.09-.46.47-1.1.74-.63.27-1.35.27h-9.65v7.56h-3.44V10.89h3.44v3.17q.05-.67.35-1.24t.76-1 1.06-.68q.61-.25 1.29-.25h6.19q.72 0 1.35.28.64.27 1.1.74.47.46.74 1.09.27.64.27 1.36m-13.11 11.79h9.65V14.36h-9.65zm29.46-11.79h-7.13v15.25h-3.45V10.89h3.45v3.31q.03-.69.31-1.29.28-.61.75-1.06.46-.45 1.08-.7.61-.26 1.32-.26h3.67q.72 0 1.35.28.62.27 1.1.74.47.46.74 1.09.27.64.27 1.36v3.16h-3.46zm23.96 0v11.79q0 .72-.27 1.36-.27.63-.74 1.09-.47.47-1.09.74t-1.34.27h-9.3q-.71 0-1.34-.27t-1.1-.74q-.46-.46-.74-1.09-.27-.64-.27-1.36V14.36q0-.72.27-1.36.28-.63.74-1.09.47-.47 1.1-.74.63-.28 1.34-.28h9.3q.72 0 1.34.28.62.27 1.09.74.47.46.74 1.09.27.64.27 1.36m-3.44 0h-9.3v11.79h9.3zm22.3-7.21h-6.15v3.74h6.15v3.47h-6.15v15.25H8.59V14.36H4.02v-3.47h4.57V7.15q0-.72.27-1.34.27-.63.75-1.1.47-.48 1.1-.75.64-.27 1.34-.27h6.15zm4.87 3.74h3.46v18.72h-3.46zm-.17-3.6v-3.6h3.81v3.6zm9.58-3.6h3.44v25.92h-3.44zm25.04 10.67v7.66H45.13v4.13h12.39v3.46H45.13q-.7 0-1.33-.27-.64-.27-1.1-.74-.47-.46-.74-1.09-.27-.64-.27-1.36V14.36q0-.72.27-1.36.27-.63.74-1.09.46-.47 1.1-.74.63-.28 1.33-.28h8.93q.72 0 1.36.28.63.27 1.09.74.47.46.74 1.09.27.64.27 1.36m-3.46 0h-8.93v4.2h8.93z" transform="translate(300.006 85.712)scale(.8619)" font-family="Aldrich" font-size="36"/>
  <g font-family="Aldrich" font-size="24">
    <path xml:space="preserve" style="stroke:none;stroke-width:0;stroke-dasharray:none;stroke-linecap:butt;stroke-dashoffset:0;stroke-linejoin:miter;stroke-miterlimit:4;is-custom-font:none;font-file-url:none;fill:#fff;fill-rule:nonzero;opacity:1;white-space:pre" d="M-103.53 1.93V-.55l13.1-5.61v2.44L-100.94.7l10.51 4.39v2.45zm36.4-11.2h2.4V7.54h-2.4V.34h-9.62v7.2h-2.4V-9.27h2.4v7.21h9.62zm17.04 6.64v5.11h-8.26v2.75h8.26v2.31h-8.26q-.47 0-.89-.18-.43-.18-.74-.49t-.49-.74q-.18-.42-.18-.9v-7.86q0-.48.18-.9.18-.43.49-.74t.74-.49q.42-.18.89-.18h5.95q.48 0 .9.18t.73.49.5.74q.18.42.18.9m-2.31 0h-5.95v2.8h5.95zm6.15-7.12h2.3V7.54h-2.3zm6.14 0h2.3V7.54h-2.3zm16.94 7.12v7.86q0 .48-.19.9-.18.43-.49.74t-.72.49q-.42.18-.9.18h-6.2q-.47 0-.89-.18t-.73-.49-.5-.74q-.18-.42-.18-.9v-7.86q0-.48.18-.9.19-.43.5-.74t.73-.49.89-.18h6.2q.48 0 .9.18.41.18.72.49t.49.74q.19.42.19.9m-2.3 0h-6.2v7.86h6.2z" transform="translate(300.006 135.915)scale(.8619)"/>
    <path xml:space="preserve" style="stroke:none;stroke-width:0;stroke-dasharray:none;stroke-linecap:butt;stroke-dashoffset:0;stroke-linejoin:miter;stroke-miterlimit:4;is-custom-font:none;font-file-url:none;fill:#eff46a;fill-rule:nonzero;opacity:1;white-space:pre" d="M-5.9 7.54h-2.64l-4.8-16.81h2.4l3.73 13.38L-3.5-9.27h2.4L2.62 4.11 6.35-9.27h2.4L3.94 7.54H1.31l-3.6-12.6zM21.46-2.63v7.86q0 .48-.18.9-.18.43-.49.74t-.73.49q-.41.18-.89.18h-6.2q-.47 0-.89-.18-.43-.18-.74-.49t-.49-.74q-.18-.42-.18-.9v-7.86q0-.48.18-.9.18-.43.49-.74t.74-.49q.42-.18.89-.18h6.2q.48 0 .89.18.42.18.73.49t.49.74q.18.42.18.9m-2.29 0h-6.2v7.86h6.2zm13.19 0H27.6V7.54h-2.29V-4.94h2.29v2.2q.03-.45.21-.86.19-.4.5-.7t.72-.47.88-.17h2.45q.48 0 .9.18.41.18.73.49t.5.74q.18.42.18.9v2.11h-2.31zm5.18-7.12h2.3V7.54h-2.3zm6.14 14.98v-7.86q0-.48.18-.9.18-.43.5-.74.31-.31.73-.49t.89-.18h6.43v-4.81h2.31V7.54h-2.31V5.43q-.03.43-.23.82t-.51.67q-.31.29-.71.46-.4.16-.84.16h-4.14q-.47 0-.89-.18t-.73-.49q-.32-.31-.5-.74-.18-.42-.18-.9m2.3-7.86v7.86h6.43v-7.86z" transform="translate(300.006 135.915)scale(.8619)"/>
    <path xml:space="preserve" style="stroke:none;stroke-width:0;stroke-dasharray:none;stroke-linecap:butt;stroke-dashoffset:0;stroke-linejoin:miter;stroke-miterlimit:4;is-custom-font:none;font-file-url:none;fill:#fff;fill-rule:nonzero;opacity:1;white-space:pre" d="M67.94 1.31H66.6l-.96-10.58h3.26zm-2.43 6.23v-3.5h3.51v3.5zm15.55 1.19h-2.2l6.36-19.19h2.32zm22.47-9.28v2.48l-13.1 5.61V5.09L100.92.7 90.43-3.72v-2.44z" transform="translate(300.006 135.915)scale(.8619)"/>
  </g>
  <path xml:space="preserve" font-family="Aldrich" font-size="12" style="stroke:none;stroke-width:0;stroke-dasharray:none;stroke-linecap:butt;stroke-dashoffset:0;stroke-linejoin:miter;stroke-miterlimit:4;is-custom-font:none;font-file-url:none;fill:#eff46a;fill-rule:nonzero;opacity:1;white-space:pre" d="M-60.76-4.63h1.2v7.2h4.32v1.2h-5.52zm12.24 3.31v3.94q0 .24-.09.45t-.24.36q-.16.16-.37.25-.2.09-.45.09h-3.09q-.24 0-.45-.09t-.37-.25q-.15-.15-.24-.36t-.09-.45v-3.94q0-.24.09-.45t.24-.36q.16-.16.37-.25t.45-.09h3.09q.25 0 .45.09.21.09.37.25.15.15.24.36t.09.45m-1.15 0h-3.09v3.94h3.09zm8.47 0v3.94q0 .24-.09.45t-.25.36q-.15.16-.36.25t-.45.09h-3.1q-.23 0-.44-.09t-.37-.25q-.15-.15-.24-.36t-.09-.45v-3.94q0-.24.09-.45t.24-.36q.16-.16.37-.25t.44-.09h3.1q.24 0 .45.09t.36.25q.16.15.25.36t.09.45m-1.15 0h-3.1v3.94h3.1zm8.82 5.09h-1.62l-2.98-2.67v2.67h-1.15v-8.64h1.15v4.86l2.74-2.46h1.62L-37.12.54zm4.44-1.15V1.05q0-.25.09-.45.09-.21.24-.37.16-.16.37-.25t.45-.09h2.97v-1.21h-3.77v-1.15h3.77q.24 0 .45.09t.37.25q.15.15.25.36.09.21.09.45v5.09h-1.16V2.72q-.02.21-.12.41-.09.19-.25.33-.16.15-.35.23-.2.08-.43.08h-1.82q-.24 0-.45-.09t-.37-.25q-.15-.15-.24-.36t-.09-.45m1.15-1.57v1.57h2.97V1.05zm5.68-2.37v-1.15h1.53v-1.92h1.15v1.92h2.05v1.15h-2.05v3.94h2.05v1.15h-2.05q-.23 0-.44-.09t-.37-.25q-.16-.15-.25-.36t-.09-.45v-3.94zm17.84 0h-2.64v5.09h-1.16v-5.09h-2.64v5.09h-1.15v-6.24h1.15v1.1q.01-.23.11-.43.09-.2.25-.35.15-.15.36-.24.2-.08.44-.08h1.48q.23 0 .44.08.2.09.36.24t.26.35q.09.2.1.43.01-.23.1-.43t.25-.35q.15-.15.36-.24.2-.08.44-.08h1.49q.24 0 .45.09t.36.25q.16.15.25.36t.09.45v5.09h-1.15zm8.35 0v2.56H-.2v1.38h4.13v1.15H-.2q-.23 0-.45-.09-.21-.09-.36-.25-.16-.15-.25-.36t-.09-.45v-3.94q0-.24.09-.45t.25-.36q.15-.16.36-.25.22-.09.45-.09h2.98q.24 0 .45.09t.36.25q.16.15.25.36t.09.45m-1.15 0H-.2v1.4h2.98z" transform="translate(558.905 174.51)"/>
  <path xml:space="preserve" font-family="Aldrich" font-size="8" style="stroke:none;stroke-width:0;stroke-dasharray:none;stroke-linecap:butt;stroke-dashoffset:0;stroke-linejoin:miter;stroke-miterlimit:4;is-custom-font:none;font-file-url:none;fill:#fff;fill-rule:nonzero;opacity:1;white-space:pre" d="M-61.19 1.58V-.88q0-.16.06-.3t.16-.24q.1-.11.24-.17t.3-.06h1.38q.15 0 .29.06t.24.16.17.23q.06.13.07.29v-.74h.77v5.07q0 .16-.07.3-.06.14-.16.25-.1.1-.24.16t-.3.06h-2.43v-.77h2.43V2.35h-2.15q-.16 0-.3-.06t-.24-.16q-.1-.11-.16-.25t-.06-.3m.76 0h2.15V-.88h-2.15zm4.24-3.23h.77v4.16h-.77zm-.04-.8v-.8h.84v.8zm1.88 1.57v-.77h1.02v-1.28h.77v1.28h1.37v.77h-1.37v2.62h1.37v.77h-1.37q-.16 0-.3-.06t-.24-.16q-.11-.11-.17-.25t-.06-.3V-.88zm8.12 0v3.39H-47V-.88h-2.15v3.39h-.76v-5.76h.76v2.34q.01-.16.07-.29.07-.13.17-.23t.24-.16.29-.06H-47q.16 0 .3.06t.24.17q.11.1.17.24t.06.3m1.28 2.62v-3.39h.76v3.39h2.15v-3.39h.77v4.16h-.77v-.7q-.01.14-.08.27t-.17.23q-.1.09-.24.15-.13.05-.28.05h-1.38q-.15 0-.29-.06t-.25-.16q-.1-.11-.16-.25t-.06-.3m8.64-2.62v2.62q0 .16-.06.3t-.17.25q-.1.1-.24.16t-.3.06h-2.15q-.15 0-.29-.06t-.25-.16q-.1-.11-.16-.25t-.06-.3v-4.99h.76v2.34q.01-.16.07-.29.07-.13.17-.23t.24-.16.29-.06h1.38q.16 0 .3.06t.24.17q.11.1.17.24t.06.3m-.77 0h-2.15v2.62h2.15zm2.05 3.39V1.35h1.17v1.16zm5.2-3.39h-1.99v2.62h1.99v-.7h.77v.7q0 .16-.06.3t-.17.25q-.1.1-.24.16t-.3.06h-1.99q-.15 0-.29-.06t-.25-.16q-.1-.11-.16-.25t-.06-.3V-.88q0-.16.06-.3t.16-.24q.11-.11.25-.17t.29-.06h1.99q.16 0 .3.06t.24.17q.11.1.17.24t.06.3v.71h-.77zm5.65 0v2.62q0 .16-.06.3t-.17.25q-.1.1-.24.16t-.3.06h-2.06q-.16 0-.3-.06t-.25-.16q-.1-.11-.16-.25t-.06-.3V-.88q0-.16.06-.3t.16-.24q.11-.11.25-.17t.3-.06h2.06q.16 0 .3.06t.24.17q.11.1.17.24t.06.3m-.77 0h-2.06v2.62h2.06zm7.1 0h-1.75v3.39h-.77V-.88h-1.77v3.39h-.76v-4.16h.76v.74q.01-.16.07-.29.07-.13.17-.23t.24-.16.29-.06h1q.15 0 .28.06.14.06.25.16.1.1.17.23.06.13.07.29 0-.16.06-.29t.17-.23q.1-.1.24-.16.13-.06.29-.06h.99q.16 0 .3.06t.25.17q.1.1.16.24t.06.3v3.39h-.77zm2.47 3.79h-.74l2.12-6.4h.78zm3.2-1.2v-4q0-.16.06-.31.06-.14.17-.25t.26-.17q.14-.07.31-.07h3.04q.16 0 .31.07.14.06.25.17t.18.25q.06.15.06.31v.72h-.8v-.72h-3.04v4h3.04V.99h.8v.72q0 .17-.06.31-.07.15-.18.26t-.25.17q-.15.06-.31.06h-3.04q-.17 0-.31-.06-.15-.06-.26-.17t-.17-.26q-.06-.14-.06-.31m9.44-2.59v2.62q0 .16-.06.3t-.17.25q-.1.1-.24.16t-.3.06h-2.06q-.16 0-.3-.06t-.24-.16q-.11-.11-.17-.25t-.06-.3V-.88q0-.16.06-.3t.17-.24q.1-.11.24-.17t.3-.06h2.06q.16 0 .3.06t.24.17q.11.1.17.24t.06.3m-.77 0h-2.06v2.62h2.06zm4.4 0H-.69v3.39h-.77v-4.16h.77v.74q0-.16.07-.29.06-.13.16-.23.11-.1.24-.16.14-.06.3-.06h.81q.16 0 .3.06t.24.17q.11.1.17.24t.06.3v.71H.89zm5.25 0V.83H3.38v.91h2.76v.77H3.38q-.15 0-.29-.06t-.25-.16q-.1-.11-.16-.25t-.06-.3V-.88q0-.16.06-.3t.16-.24q.11-.11.25-.17t.29-.06h1.99q.16 0 .3.06t.24.17q.11.1.17.24t.06.3m-.77 0H3.38v.94h1.99zm5.73 0v3.39h-.77V-.88H8.18v3.39h-.76v-4.16h.76v.74q.01-.16.07-.29.07-.13.17-.23t.24-.16.29-.06h1.38q.16 0 .3.06t.24.17q.11.1.17.24t.06.3m1.04 0v-.77h1.01v-1.28h.77v1.28h1.37v.77h-1.37v2.62h1.37v.77h-1.37q-.15 0-.29-.06t-.25-.16q-.11-.11-.17-.25t-.06-.3V-.88zm4.47-.77h.77v4.16h-.77zm-.04-.8v-.8h.85v.8zm5.81 1.57v3.39h-.77V-.88h-2.14v3.39h-.77v-4.16h.77v.74q0-.16.07-.29.06-.13.16-.23.11-.1.24-.16.14-.06.3-.06h1.37q.16 0 .3.06t.25.17q.1.1.16.24t.06.3m1.36-2.21h.8v4.8h2.88v.8h-3.68zM32.29.33v.82q-.02.69-.35 1.03-.33.33-1.01.33h-1.51q-1.36 0-1.36-1.36V.82h.78v.29q0 .32.15.47.14.15.46.15h1.45q.32 0 .46-.15t.14-.47V.36q0-.32-.14-.46-.14-.15-.46-.15h-2.68v-2.84h3.92v.8h-3.12v1.26h1.91q.68 0 1.02.33.34.34.34 1.03" transform="translate(558.238 185.748)"/>
</svg>
